<?xml version="1.0" encoding="utf-8"?>
<!-- Generator: Adobe Illustrator 16.0.3, SVG Export Plug-In . SVG Version: 6.00 Build 0)  -->
<!DOCTYPE svg PUBLIC "-//W3C//DTD SVG 1.1//EN" "http://www.w3.org/Graphics/SVG/1.1/DTD/svg11.dtd">
<svg version="1.1" id="Layer_1" xmlns="http://www.w3.org/2000/svg" xmlns:xlink="http://www.w3.org/1999/xlink" x="0px" y="0px"
	 width="308.14px" height="312.79px" viewBox="0 0 308.14 312.79" enable-background="new 0 0 308.14 312.79" xml:space="preserve">
<g>
	<path fill="#F1404B" d="M10.396,223.349c0,41.422,33.579,75,75,75h136c41.422,0,75-33.578,75-75v-136c0-41.421-33.578-75-75-75
		h-136c-41.421,0-75,33.579-75,75V223.349z"/>
</g>
<path fill="#FFFFFF" d="M83.965,200.232c-3.575-7.539-7.098-15.364-10.574-23.474c-3.477-8.107-6.778-16.132-9.905-24.07
	c-3.129-7.936-6.003-15.534-8.626-22.792c-2.623-7.258-4.89-13.734-6.796-19.432h22.279c1.681,5.197,3.548,10.794,5.605,16.785
	c2.056,5.994,4.153,11.966,6.286,17.917c2.133,5.953,4.178,11.654,6.133,17.107c1.955,5.452,3.827,10.16,5.616,14.125
	c1.687-3.938,3.529-8.636,5.53-14.087c1.999-5.45,4.068-11.153,6.201-17.105c2.133-5.951,4.227-11.923,6.283-17.917
	c2.057-5.991,3.929-11.6,5.616-16.825h21.513c-2.011,5.726-4.325,12.21-6.942,19.453c-2.616,7.244-5.479,14.838-8.587,22.782
	c-3.109,7.946-6.388,15.976-9.841,24.095c-3.453,8.118-6.96,15.932-10.518,23.438H83.965z"/>
<path fill="#FFFFFF" d="M211.747,120.051c0.172,3.542,0.409,7.557,0.713,12.046c0.302,4.491,0.646,9.132,1.036,13.925
	c0.389,4.793,0.798,9.565,1.23,14.314c0.431,4.75,0.862,9.154,1.296,13.212c2.244-4.403,4.533-9.151,6.865-14.248
	c2.332-5.094,4.664-10.363,6.994-15.804c2.332-5.44,4.642-10.966,6.93-16.58c2.288-5.612,4.469-11.096,6.542-16.451h21.374
	c-6.736,16.408-13.603,32.018-20.596,46.827c-6.997,14.812-14.508,29.125-22.54,42.94H202.68c-0.692-4.749-1.318-9.304-1.879-13.666
	c-0.562-4.358-1.079-8.655-1.554-12.889c-0.476-4.229-0.906-8.504-1.296-12.823c-0.389-4.317-0.756-8.809-1.101-13.472
	c-4.922,9.155-9.779,18.115-14.572,26.878c-4.793,8.766-9.91,17.423-15.35,25.972h-18.913c-0.692-8.031-1.188-15.976-1.489-23.834
	c-0.304-7.857-0.453-15.846-0.453-23.964c0-6.994,0.128-13.967,0.388-20.92c0.259-6.95,0.603-13.968,1.037-21.049h20.337
	c-0.433,7.601-0.842,15.048-1.23,22.345c-0.388,7.298-0.582,14.876-0.582,22.733c0,2.938,0,5.917,0,8.938
	c0,3.023,0.084,6.045,0.258,9.066c2.418-4.229,4.965-8.722,7.643-13.471c2.676-4.749,5.311-9.499,7.901-14.249
	c2.591-4.749,5.053-9.347,7.384-13.796c2.331-4.446,4.317-8.439,5.959-11.981H211.747z"/>
</svg>
